<svg preserveAspectRatio="none" width="100%" height="100%" overflow="visible" style="display: block;" viewBox="0 0 20 20" fill="none" xmlns="http://www.w3.org/2000/svg">
<g id="IconBase">
<path id="Vector" d="M7.8125 9.09609C7.90753 9.04123 7.98644 8.96231 8.0413 8.86727C8.09616 8.77223 8.12502 8.66442 8.125 8.55469V2.92969C8.12444 2.83004 8.10007 2.73198 8.05391 2.64367C8.00775 2.55536 7.94114 2.47936 7.85965 2.42202C7.77815 2.36469 7.68412 2.32766 7.58541 2.31405C7.4867 2.30043 7.38616 2.31062 7.29219 2.34375C5.46795 2.98939 3.93384 4.26457 2.96564 5.94005C1.99743 7.61554 1.65864 9.58145 2.01016 11.4844C2.02838 11.5828 2.06996 11.6754 2.13141 11.7544C2.19286 11.8333 2.27238 11.8964 2.36328 11.9383C2.4452 11.9766 2.53457 11.9963 2.625 11.9961C2.7347 11.9961 2.84247 11.9673 2.9375 11.9125L7.8125 9.09609ZM6.875 3.87656V8.19375L3.13437 10.3523C3.125 10.2344 3.125 10.1156 3.125 10C3.12611 8.73309 3.47679 7.49106 4.13843 6.41066C4.80008 5.33025 5.74702 4.45337 6.875 3.87656ZM10 1.875C9.83424 1.875 9.67527 1.94085 9.55806 2.05806C9.44085 2.17527 9.375 2.33424 9.375 2.5V9.67344L3.21797 13.2602C3.14652 13.3016 3.08399 13.3567 3.03399 13.4225C2.98399 13.4882 2.94751 13.5632 2.92666 13.6431C2.90581 13.723 2.901 13.8062 2.91252 13.888C2.92404 13.9698 2.95164 14.0485 2.99375 14.1195C3.7154 15.3463 4.74665 16.362 5.98426 17.065C7.22188 17.7679 8.62244 18.1334 10.0457 18.1249C11.469 18.1163 12.8651 17.734 14.0942 17.0163C15.3233 16.2986 16.3422 15.2706 17.0491 14.0352C17.756 12.7998 18.1259 11.4004 18.1219 9.97714C18.1179 8.55384 17.7401 7.15656 17.0263 5.92518C16.3125 4.69381 15.2877 3.67155 14.0546 2.96074C12.8215 2.24994 11.4233 1.87553 10 1.875ZM10 16.875C8.90894 16.8721 7.83407 16.6109 6.86333 16.1128C5.89259 15.6148 5.05354 14.894 4.41484 14.0094L10.3148 10.5719C10.4098 10.5171 10.4886 10.4383 10.5435 10.3434C10.5983 10.2485 10.6272 10.1409 10.6273 10.0312V3.15313C12.3902 3.31306 14.0234 4.14675 15.187 5.48063C16.3505 6.8145 16.9548 8.54577 16.874 10.314C16.7931 12.0822 16.0334 13.7511 14.753 14.9733C13.4725 16.1954 11.7701 16.8766 10 16.875Z" fill="var(--fill-0, white)"/>
</g>
</svg>
