<svg preserveAspectRatio="none" width="100%" height="100%" overflow="visible" style="display: block;" viewBox="0 0 12.0001 11.0769" fill="none" xmlns="http://www.w3.org/2000/svg">
<path id="Vector" d="M11.0769 2.04738C10.9368 2.98308 10.6849 3.89856 10.3265 4.77415C10.2879 4.8704 10.2218 4.95311 10.1364 5.01191C10.051 5.0707 9.95013 5.10295 9.84646 5.10462M9.84646 5.10462C9.81209 5.10472 9.77687 5.10163 9.74308 5.09538C8.83933 4.91469 7.96217 4.62003 7.13262 4.21846M9.84646 5.10462C9.63415 2.75908 7.72246 0.923077 5.39446 0.923077C2.92523 0.923077 0.923077 2.98985 0.923077 5.53846C0.923077 8.08708 2.92523 10.1538 5.39446 10.1538C6.11354 10.1538 6.79292 9.97846 7.39477 9.66738" stroke="var(--stroke-0, #737373)" stroke-width="1.84615" stroke-linecap="round" stroke-linejoin="round"/>
</svg>
