<svg preserveAspectRatio="none" width="100%" height="100%" overflow="visible" style="display: block;" viewBox="0 0 17.5 12.5" fill="none" xmlns="http://www.w3.org/2000/svg">
<path id="Vector" d="M14.1667 4.16667V1.66667C14.1667 1.44565 14.0789 1.23369 13.9226 1.07741C13.7663 0.921131 13.5543 0.833333 13.3333 0.833333H2.5C2.05797 0.833333 1.63405 1.00893 1.32149 1.32149C1.00893 1.63405 0.833333 2.05797 0.833333 2.5C0.833333 2.94203 1.00893 3.36595 1.32149 3.67851C1.63405 3.99107 2.05797 4.16667 2.5 4.16667H15C15.221 4.16667 15.433 4.25446 15.5893 4.41074C15.7455 4.56702 15.8333 4.77899 15.8333 5V8.33333M15.8333 8.33333H13.3333C12.8913 8.33333 12.4674 8.50893 12.1548 8.82149C11.8423 9.13405 11.6667 9.55797 11.6667 10C11.6667 10.442 11.8423 10.866 12.1548 11.1785C12.4674 11.4911 12.8913 11.6667 13.3333 11.6667H15.8333C16.0543 11.6667 16.2663 11.5789 16.4226 11.4226C16.5789 11.2663 16.6667 11.0543 16.6667 10.8333V9.16667C16.6667 8.94565 16.5789 8.73369 16.4226 8.57741C16.2663 8.42113 16.0543 8.33333 15.8333 8.33333Z" stroke="var(--stroke-0, #D1D5DB)" stroke-width="1.66667" stroke-linecap="round" stroke-linejoin="round"/>
</svg>
