<svg preserveAspectRatio="none" width="100%" height="100%" overflow="visible" style="display: block;" viewBox="0 0 17.9167 17.9167" fill="none" xmlns="http://www.w3.org/2000/svg">
<path id="Vector" d="M8.95833 17.2917C6.7482 17.2917 4.62858 16.4137 3.06578 14.8509C1.50297 13.2881 0.625 11.1685 0.625 8.95833C0.625 6.7482 1.50297 4.62858 3.06578 3.06578C4.62858 1.50297 6.7482 0.625 8.95833 0.625C11.1685 0.625 13.2881 1.41518 14.8509 2.8217C16.4137 4.22822 17.2917 6.13588 17.2917 8.125C17.2917 9.23007 16.8527 10.2899 16.0713 11.0713C15.2899 11.8527 14.2301 12.2917 13.125 12.2917H11.25C10.9792 12.2917 10.7137 12.3671 10.4833 12.5095C10.2529 12.6519 10.0667 12.8556 9.94563 13.0978C9.82451 13.3401 9.77324 13.6112 9.79756 13.881C9.82188 14.1507 9.92084 14.4083 10.0833 14.625L10.3333 14.9583C10.4958 15.175 10.5948 15.4326 10.6191 15.7024C10.6434 15.9721 10.5922 16.2433 10.471 16.4855C10.3499 16.7278 10.1637 16.9315 9.93336 17.0739C9.70298 17.2162 9.4375 17.2917 9.16667 17.2917H8.95833Z" stroke="var(--stroke-0, #9CA3AF)" stroke-width="1.25" stroke-linecap="round" stroke-linejoin="round"/>
</svg>
