<svg preserveAspectRatio="none" width="100%" height="100%" overflow="visible" style="display: block;" viewBox="0 0 116.884 100" fill="none" xmlns="http://www.w3.org/2000/svg">
<g id="Group">
<path id="Vector" d="M6.00001 100C5.17982 100 4.36833 99.8318 3.61568 99.5059C2.86303 99.18 2.1852 98.7032 1.62405 98.105C1.0629 97.5068 0.630359 96.7999 0.353132 96.028C0.0759053 95.2561 -0.0401171 94.4355 0.0122355 93.617C0.879593 80.0561 4.50166 66.8143 10.6573 54.6999C16.813 42.5855 25.373 31.8528 35.8149 23.157C46.2568 14.4612 58.3614 7.98475 71.3898 4.12307C84.4181 0.261387 98.0968 -0.904508 111.591 0.696565C112.405 0.793203 113.191 1.0558 113.9 1.46815C114.609 1.88049 115.226 2.43382 115.713 3.09395C116.2 3.75409 116.546 4.50701 116.73 5.30622C116.915 6.10543 116.933 6.93394 116.785 7.74059L115.334 15.6261C115.059 17.1198 114.228 18.4538 113.008 19.3588C111.788 20.2638 110.271 20.6725 108.761 20.5026C98.0384 19.2949 87.182 20.2691 76.8454 23.3664C66.5087 26.4638 56.9055 31.6203 48.6136 38.5256C40.3217 45.4309 33.5125 53.9424 28.5957 63.5479C23.6789 73.1533 20.7561 83.6542 20.0033 94.4186C19.8973 95.9337 19.2207 97.3523 18.1098 98.3882C16.999 99.424 15.5367 100 14.0179 100H6.00001Z" fill="var(--fill-0, #F7931A)"/>
</g>
</svg>
