<svg preserveAspectRatio="none" width="100%" height="100%" overflow="visible" style="display: block;" viewBox="0 0 77.5092 86.5616" fill="none" xmlns="http://www.w3.org/2000/svg">
<g id="Group">
<path id="Vector" d="M2.18672 4.5052C2.39106 3.71087 2.75608 2.96687 3.25925 2.31915C3.76241 1.67144 4.39303 1.13376 5.11215 0.739334C5.83128 0.344907 6.62363 0.102109 7.44028 0.0259338C8.25692 -0.0502412 9.08052 0.0418253 9.86018 0.296447C27.208 5.96185 42.6747 16.2664 54.5846 30.0938C66.4945 43.9211 74.3935 60.744 77.4258 78.7398C77.5621 79.5486 77.5311 80.3767 77.3348 81.173C77.1385 81.9694 76.7809 82.717 76.2843 83.3698C75.7877 84.0225 75.1625 84.5665 74.4473 84.9681C73.7322 85.3698 72.9423 85.6205 72.1265 85.7049L64.1512 86.5297C62.6404 86.686 61.1266 86.2635 59.9151 85.3474C58.7036 84.4313 57.8846 83.0899 57.6233 81.5937C55.1397 67.371 48.8533 54.0856 39.4309 43.1462C30.0084 32.2067 17.8011 24.0212 4.10346 19.4574C2.66249 18.9773 1.45723 17.9686 0.730789 16.6348C0.00435311 15.3009 -0.189199 13.7412 0.189194 12.2703L2.18672 4.5052Z" fill="var(--fill-0, #627EEA)"/>
</g>
</svg>
